<?xml version="1.0" encoding="UTF-8"?>
<svg version="1.1" xmlns="http://www.w3.org/2000/svg" width="1280" height="669">
<path d="M0 0 C1.30156562 0.4053121 2.60362318 0.80904904 3.90625 1.2109375 C26.25028907 8.32474481 46.63249348 18.52307172 67 30 C67 30.66 67 31.32 67 32 C67.66 32.226875 68.32 32.45375 69 32.6875 C72.88658628 34.3878815 76.63679817 36.39623084 80 39 C80 39.66 80 40.32 80 41 C80.969375 41.268125 81.93875 41.53625 82.9375 41.8125 C83.948125 42.204375 84.95875 42.59625 86 43 C86.33 43.99 86.66 44.98 87 46 C87.99 46 88.98 46 90 46 C90 46.66 90 47.32 90 48 C90.57621094 48.26941406 91.15242188 48.53882813 91.74609375 48.81640625 C94.03923181 50.0206018 95.99919642 51.37511405 98.0625 52.9375 C98.73410156 53.44152344 99.40570312 53.94554688 100.09765625 54.46484375 C101.87169473 55.89646002 103.49885042 57.28373241 105 59 C105 59.66 105 60.32 105 61 C105.87047974 61.38369751 105.87047974 61.38369751 106.75854492 61.77514648 C109.2223054 63.12147982 110.87657271 64.6178778 112.86328125 66.59765625 C113.94706055 67.67756836 113.94706055 67.67756836 115.05273438 68.77929688 C115.79845703 69.53275391 116.54417969 70.28621094 117.3125 71.0625 C118.04662109 71.78888672 118.78074219 72.51527344 119.53710938 73.26367188 C123.85092892 77.59280223 127.74390746 82.0436977 131.38354492 86.95483398 C133.11372829 89.14389093 135.01221438 91.04496752 137 93 C162 124.7139738 162 124.7139738 162 134 C162.66 134 163.32 134 164 134 C166.33995191 138.95280143 168.67439683 143.90811939 171 148.86767578 C171.82153845 150.61946211 172.64489262 152.37039681 173.46875 154.12109375 C189.1725937 187.99508993 196.18863953 224.75002747 196.18530273 261.90185547 C196.18747991 264.60009783 196.20568433 267.29792367 196.22460938 269.99609375 C196.27671541 285.94135652 195.04912998 301.72654326 192.25 317.4375 C192.08153564 318.3872168 191.91307129 319.33693359 191.73950195 320.31542969 C188.61767011 337.09684024 183.20696473 353.13435525 177 369 C176.57976563 370.08539063 176.15953125 371.17078125 175.7265625 372.2890625 C171.16616014 383.64415831 165.6652417 394.73431764 159.12890625 405.08203125 C157.84995198 407.10231891 157.84995198 407.10231891 157 410 C156.34 410 155.68 410 155 410 C154.90589844 410.54140625 154.81179688 411.0828125 154.71484375 411.640625 C153.78860747 414.69771088 152.2754644 417.05769005 150.5625 419.75 C149.94503906 420.73484375 149.32757812 421.7196875 148.69140625 422.734375 C148.13324219 423.48203125 147.57507813 424.2296875 147 425 C146.34 425 145.68 425 145 425 C144.9071875 425.56589844 144.814375 426.13179688 144.71875 426.71484375 C143.81853765 429.57693194 142.41578351 431.25519724 140.5 433.5625 C139.78457031 434.43261719 139.06914063 435.30273438 138.33203125 436.19921875 C137.56246094 437.12347656 136.79289062 438.04773438 136 439 C134.39443464 440.95718676 132.79024674 442.91550439 131.1875 444.875 C130.45917969 445.75929688 129.73085938 446.64359375 128.98046875 447.5546875 C127.72530031 449.10446156 126.51282408 450.69065035 125.36328125 452.3203125 C124.91339844 452.87460937 124.46351563 453.42890625 124 454 C123.34 454 122.68 454 122 454 C122 454.66 122 455.32 122 456 C121.34 456 120.68 456 120 456 C119.67 456.99 119.34 457.98 119 459 C118.34 459 117.68 459 117 459 C117 459.66 117 460.32 117 461 C116.34 461 115.68 461 115 461 C114.67 461.99 114.34 462.98 114 464 C113.34 464 112.68 464 112 464 C111.75894531 464.57492187 111.51789063 465.14984375 111.26953125 465.7421875 C107.35769345 472.69924057 99.24390058 477.701582 93 482.5625 C92.43627686 483.00416504 91.87255371 483.44583008 91.29174805 483.90087891 C87.24317455 487 87.24317455 487 85 487 C84.67 487.99 84.34 488.98 84 490 C82.00892752 491.01765927 80.00781177 492.01577854 78 493 C77.43152344 493.59425781 76.86304688 494.18851563 76.27734375 494.80078125 C73.27945469 497.69582677 69.95359534 499.64534718 66.375 501.75 C65.694375 502.16121094 65.01375 502.57242188 64.3125 502.99609375 C59.26274398 506 59.26274398 506 57 506 C57 506.66 57 507.32 57 508 C55.96101563 508.51949219 54.92203125 509.03898438 53.8515625 509.57421875 C53.18084717 509.90969727 52.51013184 510.24517578 51.8190918 510.59082031 C50.346988 511.32662651 48.87448917 512.06164288 47.40161133 512.79589844 C44.29065565 514.34778078 41.18448295 515.90440655 38.09765625 517.50390625 C33.15348821 520.06012927 28.20779452 522.12466239 22.93359375 523.91015625 C20.51076755 524.81024747 18.24078221 525.80834034 15.90234375 526.8984375 C10.46514556 529.34317003 4.85455312 530.95083683 -0.875 532.5625 C-1.88691406 532.85318359 -2.89882813 533.14386719 -3.94140625 533.44335938 C-5.97218223 534.02450973 -8.00466534 534.59972804 -10.03881836 535.16894531 C-11.94395276 535.70362068 -13.84613256 536.24899978 -15.74438477 536.80761719 C-22.8220359 538.8457751 -29.90395192 540.06941332 -37.1875 541.125 C-38.31091797 541.29386719 -39.43433594 541.46273437 -40.59179688 541.63671875 C-43.72635222 542.10423317 -46.86086294 542.56428846 -50 543 C-51.24209229 543.17797119 -52.48418457 543.35594238 -53.76391602 543.53930664 C-58.46020503 544.11595663 -63.13206194 544.19744306 -67.859375 544.23828125 C-68.79373886 544.24798447 -69.72810272 544.25768768 -70.69078064 544.26768494 C-73.71056441 544.2925788 -76.73012387 544.30521175 -79.75 544.3125 C-80.78033356 544.31511841 -81.81066711 544.31773682 -82.8722229 544.32043457 C-99.6396544 544.32499931 -115.51756997 543.22282152 -132 540 C-133.67671018 539.7061958 -135.35377485 539.41440466 -137.03125 539.125 C-175.86512461 532.05445152 -212.73090284 514.26109136 -244.30859375 490.95703125 C-247.87742894 488.36198563 -251.53147866 485.89807804 -255.19921875 483.4453125 C-255.79347656 482.96835937 -256.38773437 482.49140625 -257 482 C-257 481.34 -257 480.68 -257 480 C-257.57621094 479.7421875 -258.15242188 479.484375 -258.74609375 479.21875 C-261.19393785 477.8951324 -263.00637727 476.3699228 -265.0625 474.5 C-267.33432007 472.44184439 -269.43707257 470.70861829 -272 469 C-272 468.34 -272 467.68 -272 467 C-272.99 466.67 -273.98 466.34 -275 466 C-275 465.34 -275 464.68 -275 464 C-275.66 464 -276.32 464 -277 464 C-278.625 462.625 -278.625 462.625 -280 461 C-280 460.34 -280 459.68 -280 459 C-280.66 459 -281.32 459 -282 459 C-287 453.52380952 -287 453.52380952 -287 451 C-287.60231445 450.73574219 -288.20462891 450.47148438 -288.82519531 450.19921875 C-291.10095842 448.94433007 -292.21059528 447.84386773 -293.796875 445.8125 C-294.28027344 445.19632813 -294.76367188 444.58015625 -295.26171875 443.9453125 C-295.75285156 443.30335938 -296.24398437 442.66140625 -296.75 442 C-297.25660156 441.35804688 -297.76320313 440.71609375 -298.28515625 440.0546875 C-302 435.26844677 -302 435.26844677 -302 433 C-302.66 433 -303.32 433 -304 433 C-305.63511004 430.80263093 -307.1423373 428.61019529 -308.625 426.3125 C-309.067229 425.63783691 -309.50945801 424.96317383 -309.96508789 424.26806641 C-314.10256554 417.92249712 -318.08809512 411.48671525 -322 405 C-322.56847656 404.11570312 -323.13695312 403.23140625 -323.72265625 402.3203125 C-325 400 -325 400 -325 397 C-325.66 397 -326.32 397 -327 397 C-332.13613492 387.19702168 -336.57181831 377.41300052 -340.27783203 366.98681641 C-340.99553437 365.01228575 -341.75328547 363.05853019 -342.52734375 361.10546875 C-346.53622774 350.93004897 -349.41404229 340.61918746 -352 330 C-352.2990625 328.79988281 -352.598125 327.59976562 -352.90625 326.36328125 C-361.94670093 288.89061214 -361.75355622 247.68174911 -354 210 C-353.85836426 209.28569824 -353.71672852 208.57139648 -353.57080078 207.83544922 C-350.34432131 191.66740013 -345.64669582 176.10026041 -339 161 C-338.20587867 159.0635048 -337.41427345 157.12597615 -336.625 155.1875 C-333.64527392 148.01902161 -330.32457064 141.01321529 -327 134 C-326.34 134 -325.68 134 -325 134 C-324.90332031 133.29359375 -324.80664062 132.5871875 -324.70703125 131.859375 C-321.98728338 120.86017365 -311.94262831 110.02796186 -305.40087891 100.96191406 C-304.4504481 99.63084715 -303.51563302 98.2885176 -302.59521484 96.93652344 C-301.44385785 95.25775977 -300.22748697 93.62392922 -299 92 C-298.34 92 -297.68 92 -297 92 C-296.814375 91.319375 -296.62875 90.63875 -296.4375 89.9375 C-294.7504195 86.48998768 -292.6613982 84.49804961 -289.91015625 81.87109375 C-288.07360816 80.07210288 -286.41275769 78.20924943 -284.75 76.25 C-278.50074877 69.01328244 -271.68801929 61.71673229 -264 56 C-263.34 56 -262.68 56 -262 56 C-261.62875 55.11054688 -261.62875 55.11054688 -261.25 54.203125 C-259.81031137 51.6656738 -258.34848507 50.45955898 -256 48.75 C-254.948125 47.96882813 -254.948125 47.96882813 -253.875 47.171875 C-252 46 -252 46 -250 46 C-250 45.34 -250 44.68 -250 44 C-248.27473958 43.05598958 -246.54947917 42.11197917 -244.82421875 41.16796875 C-242.97910339 40.08724055 -242.97910339 40.08724055 -241.66503906 38.60766602 C-239.7606269 36.7688751 -237.7901007 35.49596864 -235.53515625 34.109375 C-234.21994995 33.29714478 -234.21994995 33.29714478 -232.87817383 32.46850586 C-231.48441528 31.61784546 -231.48441528 31.61784546 -230.0625 30.75 C-229.11334717 30.16806885 -228.16419434 29.5861377 -227.1862793 28.98657227 C-224.46057853 27.31930113 -221.73067317 25.65910993 -219 24 C-218.34064453 23.59571777 -217.68128906 23.19143555 -217.00195312 22.77490234 C-211.40065147 19.34386447 -205.91288125 16.3572571 -199.74511719 14.08300781 C-196.79690732 12.91987557 -193.98002578 11.57881099 -191.125 10.203125 C-184.51868204 7.13562346 -177.77804131 4.69252835 -170.86108398 2.43969727 C-168.93221922 1.81077817 -167.0079899 1.16900379 -165.08398438 0.52539062 C-157.46499733 -2.00230548 -149.82983596 -4.2258249 -142 -6 C-141.00556885 -6.23017822 -140.0111377 -6.46035645 -138.98657227 -6.69750977 C-94.10674689 -16.5029232 -43.60826324 -14.28072404 0 0 Z M-91.22851562 29.05419922 C-120.08475955 29.88682462 -149.63736417 36.0901401 -176 48 C-176.66177246 48.2980957 -177.32354492 48.59619141 -178.00537109 48.90332031 C-186.63797709 52.81323398 -195.02227722 56.85436881 -203 62 C-204.95820634 63.25019894 -206.91654235 64.50019479 -208.875 65.75 C-209.75929688 66.32234375 -210.64359375 66.8946875 -211.5546875 67.484375 C-213.66264717 68.79090591 -215.76144952 69.93799001 -218 71 C-218 71.66 -218 72.32 -218 73 C-218.68707031 73.21527344 -219.37414062 73.43054688 -220.08203125 73.65234375 C-223.85538671 75.39505812 -226.5926978 77.82519477 -229.6875 80.5625 C-235.79569094 85.89784547 -235.79569094 85.89784547 -238 87 C-238 87.66 -238 88.32 -238 89 C-238.5772583 89.25273682 -239.1545166 89.50547363 -239.74926758 89.76586914 C-242.2730652 91.14972823 -243.97423326 92.71540878 -246.01171875 94.74609375 C-246.76517578 95.49536133 -247.51863281 96.24462891 -248.29492188 97.01660156 C-249.08447266 97.81549805 -249.87402344 98.61439453 -250.6875 99.4375 C-251.49896484 100.25573242 -252.31042969 101.07396484 -253.14648438 101.91699219 C-258.82065315 107.68930628 -264.16521269 113.49706969 -269 120 C-269.39590332 120.53012695 -269.79180664 121.06025391 -270.19970703 121.60644531 C-281.27884901 135.29538532 -281.27884901 135.29538532 -288 151 C-288.66 151 -289.32 151 -290 151 C-298.16705081 167.71416024 -298.16705081 167.71416024 -305 185 C-305.60908203 186.67449219 -305.60908203 186.67449219 -306.23046875 188.3828125 C-308.76680245 195.60941252 -310.8239098 202.87273837 -312.625 210.3125 C-312.81900391 211.10462891 -313.01300781 211.89675781 -313.21289062 212.71289062 C-313.85715875 215.46686386 -314.43582478 218.22845665 -315 221 C-315.26329102 222.24982666 -315.52658203 223.49965332 -315.79785156 224.78735352 C-318.38451288 237.92632793 -318.55369137 250.95659151 -318.5 264.3125 C-318.49856995 265.4586377 -318.49713989 266.60477539 -318.4956665 267.78564453 C-318.44045569 285.67020523 -317.50463986 302.61398187 -313 320 C-312.76474609 320.92458008 -312.52949219 321.84916016 -312.28710938 322.80175781 C-310.76227968 328.62173451 -308.97301144 334.31782178 -307 340 C-306.71866211 340.82209961 -306.43732422 341.64419922 -306.14746094 342.49121094 C-302.74212657 352.35716849 -299.00240029 361.8197709 -294 371 C-289.07579834 366.23464355 -284.53918574 361.1301828 -280 356 C-279.44183594 355.36964844 -278.88367188 354.73929687 -278.30859375 354.08984375 C-275.7645033 351.42710941 -275.7645033 351.42710941 -275 348 C-274.01 347.67 -273.02 347.34 -272 347 C-270.49885632 345.34731229 -269.07026333 343.62793314 -267.6875 341.875 C-264.99972525 338.49771441 -262.30337263 335.16501846 -259.4375 331.9375 C-256.78714251 329.37966408 -256.78714251 329.37966408 -257 327 C-256.34 327 -255.68 327 -255 327 C-253.52230782 325.36567245 -252.11730681 323.66523632 -250.75 321.9375 C-248.0405139 318.54079368 -245.32199855 315.18686352 -242.4375 311.9375 C-239.78714251 309.37966408 -239.78714251 309.37966408 -240 307 C-239.01 306.67 -238.02 306.34 -237 306 C-235.49885632 304.34731229 -234.07026333 302.62793314 -232.6875 300.875 C-229.99972525 297.49771441 -227.30337263 294.16501846 -224.4375 290.9375 C-221.78714251 288.37966408 -221.78714251 288.37966408 -222 286 C-221.34 286 -220.68 286 -220 286 C-218.08307133 283.78724901 -216.28028372 281.56850904 -214.5 279.25 C-214.00113281 278.61578125 -213.50226563 277.9815625 -212.98828125 277.328125 C-210.64229458 274.30916092 -208.63750822 271.47068158 -207 268 C-206.34 268 -205.68 268 -205 268 C-201.36366461 264.52001493 -201.36366461 264.52001493 -200 260 C-199.34 260 -198.68 260 -198 260 C-196.42362994 258.05012435 -194.94982761 256.10291234 -193.5 254.0625 C-189.2533363 248.12666815 -189.2533363 248.12666815 -187 247 C-187 246.34 -187 245.68 -187 245 C-186.34 245 -185.68 245 -185 245 C-183.39144899 243.22011535 -183.39144899 243.22011535 -181.75 240.9375 C-179.44769101 237.87740796 -177.10551246 234.92565418 -174.5625 232.0625 C-171.78609246 229.40988077 -171.78609246 229.40988077 -172 227 C-171.34 227 -170.68 227 -170 227 C-168.45908595 225.30411736 -166.99076703 223.54178328 -165.5625 221.75 C-164.78003906 220.77546875 -163.99757813 219.8009375 -163.19140625 218.796875 C-161.4316383 216.55089665 -159.69783902 214.29290157 -158 212 C-153.57798089 212.43191815 -151.69305974 215.1699828 -148.875 218.375 C-147.57175781 219.84066406 -147.57175781 219.84066406 -146.2421875 221.3359375 C-144 224 -144 224 -142 227 C-141.34 227 -140.68 227 -140 227 C-140 227.66 -140 228.32 -140 229 C-139.34 229 -138.68 229 -138 229 C-138 229.99 -138 230.98 -138 232 C-136.38102827 233.76615097 -134.75255822 235.37514074 -133 237 C-128.57224862 241.21151236 -124.74696464 245.4639716 -121.26171875 250.49609375 C-120.84535156 250.99238281 -120.42898438 251.48867188 -120 252 C-119.34 252 -118.68 252 -118 252 C-117.67 252.99 -117.34 253.98 -117 255 C-116.34 255 -115.68 255 -115 255 C-114.5978125 256.1446875 -114.5978125 256.1446875 -114.1875 257.3125 C-113.04865495 259.88988618 -112.18583329 261.26954864 -110 263 C-109.34 263 -108.68 263 -108 263 C-107.7628125 263.54140625 -107.525625 264.0828125 -107.28125 264.640625 C-105.65652243 267.63250137 -103.6498123 270.11159399 -101.5 272.75 C-100.7059375 273.73484375 -99.911875 274.7196875 -99.09375 275.734375 C-98.4028125 276.48203125 -97.711875 277.2296875 -97 278 C-96.34 278 -95.68 278 -95 278 C-94.5978125 279.1446875 -94.5978125 279.1446875 -94.1875 280.3125 C-93.04865495 282.88988618 -92.18583329 284.26954864 -90 286 C-89.34 286 -88.68 286 -88 286 C-87.731875 286.5775 -87.46375 287.155 -87.1875 287.75 C-85.9611378 290.07363365 -84.75156566 292.03824646 -83 294 C-82.01 294 -81.02 294 -80 294 C-76.34079297 290.54032783 -76.34079297 290.54032783 -75 286 C-74.01 285.67 -73.02 285.34 -72 285 C-72 284.34 -72 283.68 -72 283 C-71.34 283 -70.68 283 -70 283 C-68.54340023 281.38617052 -67.15951049 279.70636784 -65.8125 278 C-61.16169293 272.19209004 -56.51223936 266.45641182 -51.1875 261.25 C-49.20045749 259.20618485 -48.06556951 257.6154888 -47 255 C-46.34 255 -45.68 255 -45 255 C-43.33333333 253.66666667 -43.33333333 253.66666667 -42 252 C-42 251.34 -42 250.68 -42 250 C-41.34 250 -40.68 250 -40 250 C-38.69136629 248.52931586 -37.4553144 246.99398682 -36.25 245.4375 C-32.32389731 240.52034226 -28.19256811 235.88872163 -23.875 231.3125 C-19.604607 226.78546325 -15.37372313 222.25048304 -11.33203125 217.515625 C-10 216 -10 216 -8.32421875 214.421875 C-6.77282336 213.07990475 -6.77282336 213.07990475 -7 211 C-6.34 211 -5.68 211 -5 211 C-3.59937273 209.65404429 -3.59937273 209.65404429 -2.125 207.8125 C1.15636215 203.94763203 4.54846583 200.21184541 8 196.5 C13.09497971 190.99838018 13.09497971 190.99838018 18.125 185.4375 C18.90230469 184.56931641 18.90230469 184.56931641 19.6953125 183.68359375 C21.09126612 181.88222846 22.05032943 180.06666404 23 178 C23.66 178 24.32 178 25 178 C26.77671697 176.32040162 26.77671697 176.32040162 28.5625 174.1875 C29.18253906 173.47980469 29.80257813 172.77210938 30.44140625 172.04296875 C32.18424754 169.98726532 32.18424754 169.98726532 33 167 C33.66 167 34.32 167 35 167 C35 166.34 35 165.68 35 165 C35.99 164.67 36.98 164.34 38 164 C39.33264423 162.51143934 40.59219479 160.95696355 41.8125 159.375 C46.39862063 153.59679172 51.35666116 148.25980335 56.4777832 142.95263672 C57.06390381 142.33791504 57.65002441 141.72319336 58.25390625 141.08984375 C59.04776733 140.26794556 59.04776733 140.26794556 59.85766602 139.42944336 C61.20809606 138.04457169 61.20809606 138.04457169 61 136 C61.66 136 62.32 136 63 136 C63 135.34 63 134.68 63 134 C63.66 134 64.32 134 65 134 C66.60228383 132.29059971 68.01294742 130.46698472 69.46484375 128.62890625 C71 127 71 127 74 126 C74 230.94 74 335.88 74 444 C81.38717412 438.75424723 81.38717412 438.75424723 85 435 C85 434.34 85 433.68 85 433 C85.639375 432.731875 86.27875 432.46375 86.9375 432.1875 C89.33131686 431.11332248 89.33131686 431.11332248 90 428 C90.66 428 91.32 428 92 428 C93.56432787 426.30725716 95.05328572 424.54430148 96.5 422.75 C97.2940625 421.77546875 98.088125 420.8009375 98.90625 419.796875 C100.58748034 417.55105238 101.88135899 415.5534197 103 413 C103.66 413 104.32 413 105 413 C105 412.01 105 411.02 105 410 C105.66 410 106.32 410 107 410 C108.32084976 408.51860647 108.32084976 408.51860647 109.6015625 406.5703125 C110.09140625 405.85746094 110.58125 405.14460938 111.0859375 404.41015625 C111.59382813 403.65605469 112.10171875 402.90195312 112.625 402.125 C113.140625 401.37863281 113.65625 400.63226563 114.1875 399.86328125 C116.97756112 396.2385302 116.97756112 396.2385302 118 392 C118.66 392 119.32 392 120 392 C120.37511719 391.2265625 120.75023437 390.453125 121.13671875 389.65625 C123.81403562 384.20720206 126.56234744 378.94908215 129.8515625 373.84765625 C131.81781389 370.68426541 133.40887779 367.36374125 135 364 C135.39058594 363.20078125 135.78117187 362.4015625 136.18359375 361.578125 C139.80971074 353.94181633 142.49477867 346.05801159 145 338 C145.21688477 337.30535645 145.43376953 336.61071289 145.65722656 335.89501953 C148.60976779 326.36122478 151.20365378 316.82906423 153 307 C153.19464844 305.96101563 153.38929688 304.92203125 153.58984375 303.8515625 C157.95300191 276.52609023 157.2849679 247.14976872 152 220 C151.85691406 219.24912109 151.71382812 218.49824219 151.56640625 217.72460938 C146.89850471 193.70350544 138.18959247 169.93071162 125.234375 149.12890625 C124 147 124 147 123 144 C122.34 144 121.68 144 121 144 C119.92474806 141.34771188 118.90543849 138.71631546 118 136 C117.34 136 116.68 136 116 136 C115.75636719 135.29359375 115.51273438 134.5871875 115.26171875 133.859375 C113.81700028 130.58527617 111.99253155 128.08666756 109.8125 125.25 C109.41321289 124.72849365 109.01392578 124.2069873 108.60253906 123.66967773 C107.40612531 122.10970889 106.20313534 120.55479066 105 119 C104.34902344 118.14019531 103.69804688 117.28039062 103.02734375 116.39453125 C99.89937305 112.2903587 96.68301613 108.62666957 93 105 C91.69244865 103.67210896 90.38659985 102.34254028 89.08203125 101.01171875 C87.65895533 99.57021262 86.23577606 98.12880852 84.8125 96.6875 C83.72678711 95.57665039 83.72678711 95.57665039 82.61914062 94.44335938 C81.92626953 93.74404297 81.23339844 93.04472656 80.51953125 92.32421875 C79.89151611 91.68572998 79.26350098 91.04724121 78.61645508 90.3894043 C77.10246695 88.78272074 77.10246695 88.78272074 75 89 C75 88.34 75 87.68 75 87 C74.34 87 73.68 87 73 87 C73 86.34 73 85.68 73 85 C71.28502228 83.41173778 71.28502228 83.41173778 69.125 81.875 C68.40570312 81.33617187 67.68640625 80.79734375 66.9453125 80.2421875 C65.10373994 78.82060368 65.10373994 78.82060368 63 79 C63 78.34 63 77.68 63 77 C61.906875 76.401875 60.81375 75.80375 59.6875 75.1875 C57.74542417 74.12485473 56.19068493 73.19729829 54.6484375 71.6015625 C50.52944112 67.59969398 44.90958898 64.96160904 40 62 C39.18144531 61.48050781 38.36289062 60.96101563 37.51953125 60.42578125 C5.07802998 40.04514792 -34.91214512 29.38283526 -73 29 C-74.37109564 28.9727512 -75.74218946 28.94541042 -77.11328125 28.91796875 C-81.82281617 28.86672752 -86.52113645 28.93971213 -91.22851562 29.05419922 Z M29.9609375 230.90625 C25.3018127 235.57945071 20.74656899 240.27860799 16.47265625 245.30859375 C15 247 15 247 13.30859375 248.59765625 C11.77258477 249.92402963 11.77258477 249.92402963 12 252 C11.34 252 10.68 252 10 252 C6.36366461 255.47998507 6.36366461 255.47998507 5 260 C4.01 260.33 3.02 260.66 2 261 C0.48602264 262.41686917 0.48602264 262.41686917 -1 264.25 C-1.60457031 264.9615625 -2.20914062 265.673125 -2.83203125 266.40625 C-3.54746094 267.2621875 -4.26289062 268.118125 -5 269 C-6.40661368 270.67289682 -7.81494642 272.34432017 -9.22460938 274.01464844 C-10.18277502 275.15127084 -11.13859732 276.28987377 -12.09179688 277.43066406 C-14.09249082 279.81278527 -16.0995321 282.09669785 -18.33203125 284.265625 C-20.23105787 285.83921047 -20.23105787 285.83921047 -20 288 C-20.99 288.33 -21.98 288.66 -23 289 C-23 289.66 -23 290.32 -23 291 C-23.66 291 -24.32 291 -25 291 C-26.36902326 292.27518579 -26.36902326 292.27518579 -27.8125 294.0625 C-28.42222656 294.77921875 -29.03195312 295.4959375 -29.66015625 296.234375 C-30.43230469 297.14703125 -31.20445312 298.0596875 -32 299 C-34.24398426 301.60938264 -36.49718545 304.21074152 -38.75 306.8125 C-39.3169458 307.47064697 -39.8838916 308.12879395 -40.46801758 308.80688477 C-41.00966553 309.43393311 -41.55131348 310.06098145 -42.109375 310.70703125 C-42.59374023 311.2688208 -43.07810547 311.83061035 -43.57714844 312.40942383 C-45 314 -45 314 -46.68066406 315.58081055 C-48.22695714 316.92118154 -48.22695714 316.92118154 -48 319 C-48.66 319 -49.32 319 -50 319 C-51.77671697 320.67959838 -51.77671697 320.67959838 -53.5625 322.8125 C-54.18253906 323.52019531 -54.80257812 324.22789062 -55.44140625 324.95703125 C-57.18424754 327.01273468 -57.18424754 327.01273468 -58 330 C-58.66 330 -59.32 330 -60 330 C-60 330.66 -60 331.32 -60 332 C-60.99 332.33 -61.98 332.66 -63 333 C-64.54318872 334.69381304 -66.01400272 336.45442502 -67.4375 338.25 C-68.19933594 339.20390625 -68.96117187 340.1578125 -69.74609375 341.140625 C-71.1982656 342.982895 -72.64409375 344.83019213 -74.08203125 346.68359375 C-76.47878383 349.57824605 -79.06554628 351.66577545 -82 354 C-82.763125 353.195625 -83.52625 352.39125 -84.3125 351.5625 C-86.79430898 348.83200976 -86.79430898 348.83200976 -90 348 C-91 346.1875 -91 346.1875 -92 344 C-93.41977909 341.77256213 -93.41977909 341.77256213 -95 340 C-95.66 340 -96.32 340 -97 340 C-97.3403125 339.1646875 -97.3403125 339.1646875 -97.6875 338.3125 C-99.36613272 335.35490902 -101.58943775 333.40719554 -104 331 C-106.06265136 328.70202869 -108.06357707 326.35344888 -110.0625 324 C-110.57876953 323.39671875 -111.09503906 322.7934375 -111.62695312 322.171875 C-113.89989229 319.5080482 -116.11802377 316.84564544 -118.24609375 314.0625 C-118.82488281 313.381875 -119.40367187 312.70125 -120 312 C-120.66 312 -121.32 312 -122 312 C-123 310 -124 308 -125 306 C-125.66 306 -126.32 306 -127 306 C-127 305.34 -127 304.68 -127 304 C-128.33333333 302.33333333 -128.33333333 302.33333333 -130 301 C-130.66 301 -131.32 301 -132 301 C-132.34804688 300.17242187 -132.34804688 300.17242187 -132.703125 299.328125 C-134.34821135 296.37489769 -136.43162951 294.20887779 -138.75 291.75 C-142.42725467 287.79110588 -145.77813779 283.81020129 -148.84375 279.36328125 C-149.2253125 278.91339844 -149.606875 278.46351563 -150 278 C-150.66 278 -151.32 278 -152 278 C-152.33 277.01 -152.66 276.02 -153 275 C-153.66 275 -154.32 275 -155 275 C-155 274.34 -155 273.68 -155 273 C-155.99 273 -156.98 273 -158 273 C-158 273.66 -158 274.32 -158 275 C-158.66 275 -159.32 275 -160 275 C-160 275.99 -160 276.98 -160 278 C-161.485 278.495 -161.485 278.495 -163 279 C-164.50114368 280.65268771 -165.92973667 282.37206686 -167.3125 284.125 C-170.00027475 287.50228559 -172.69662737 290.83498154 -175.5625 294.0625 C-178.21285749 296.62033592 -178.21285749 296.62033592 -178 299 C-178.66 299 -179.32 299 -180 299 C-180 299.66 -180 300.32 -180 301 C-180.66 301 -181.32 301 -182 301 C-183.60855101 302.77988465 -183.60855101 302.77988465 -185.25 305.0625 C-187.55230899 308.12259204 -189.89448754 311.07434582 -192.4375 313.9375 C-195.21390754 316.59011923 -195.21390754 316.59011923 -195 319 C-196.485 319.495 -196.485 319.495 -198 320 C-198 320.66 -198 321.32 -198 322 C-198.66 322 -199.32 322 -200 322 C-201.91692867 324.21275099 -203.71971628 326.43149096 -205.5 328.75 C-205.99886719 329.38421875 -206.49773437 330.0184375 -207.01171875 330.671875 C-209.35770542 333.69083908 -211.36249178 336.52931842 -213 340 C-213.66 340 -214.32 340 -215 340 C-216.45917963 341.58994115 -217.84249355 343.24987572 -219.1875 344.9375 C-220.38632812 346.43216797 -220.38632812 346.43216797 -221.609375 347.95703125 C-224.30333759 351.38611108 -226.96744711 354.83618268 -229.58984375 358.3203125 C-231 360 -231 360 -233 361 C-233 361.66 -233 362.32 -233 363 C-233.66 363 -234.32 363 -235 363 C-236.84847311 365.1729233 -238.5921349 367.35402668 -240.3125 369.625 C-241.26605123 370.86785997 -242.22047237 372.11005302 -243.17578125 373.3515625 C-243.64491943 373.96193359 -244.11405762 374.57230469 -244.59741211 375.20117188 C-247.33757842 378.71545306 -250.11435882 382.13829507 -253.3125 385.25 C-255.23137852 386.83476788 -255.23137852 386.83476788 -255 389 C-255.99 389.33 -256.98 389.66 -258 390 C-262.83975428 395.2319259 -267.23627646 400.9453143 -271 407 C-267.07159661 412.51517025 -262.78375766 417.57176991 -258.21484375 422.56640625 C-256.31004346 424.65933496 -254.46096222 426.78453711 -252.625 428.9375 C-246.38807149 436.09034109 -239.6294824 443.32679514 -232 449 C-231.34 449 -230.68 449 -230 449 C-230 449.66 -230 450.32 -230 451 C-227.86520045 452.66706257 -225.73009053 454.22006074 -223.5 455.75 C-222.20774171 456.65149627 -220.91607144 457.55383605 -219.625 458.45703125 C-218.99851562 458.89354004 -218.37203125 459.33004883 -217.7265625 459.77978516 C-215.60739939 461.27746293 -213.55054888 462.84752363 -211.5 464.4375 C-206.25373081 468.50493807 -206.25373081 468.50493807 -200 470 C-200 470.66 -200 471.32 -200 472 C-198.69289063 472.65355469 -198.69289063 472.65355469 -197.359375 473.3203125 C-196.78993164 473.60527588 -196.22048828 473.89023926 -195.63378906 474.18383789 C-194.36047762 474.81999855 -193.08636623 475.45456019 -191.81152344 476.08764648 C-188.86366768 477.55389385 -185.93399773 479.03534595 -183.03125 480.58984375 C-176.24511515 484.18306403 -169.3622541 486.70811417 -162.05371094 488.99633789 C-161.31282227 489.22957764 -160.57193359 489.46281738 -159.80859375 489.703125 C-158.81557251 490.00718262 -158.81557251 490.00718262 -157.80249023 490.31738281 C-156 491 -156 491 -153 493 C-150.37520969 493.71244308 -147.77778072 494.3521569 -145.125 494.9375 C-143.5702823 495.28892894 -142.01559502 495.64049245 -140.4609375 495.9921875 C-139.69620117 496.16331055 -138.93146484 496.33443359 -138.14355469 496.51074219 C-136.33245149 496.92411927 -134.52852367 497.36874705 -132.7265625 497.8203125 C-129.496993 498.62558574 -126.26006188 499.32849224 -123 500 C-122.04697998 500.20737793 -122.04697998 500.20737793 -121.07470703 500.41894531 C-81.9638262 508.58971646 -34.23083339 504.51379894 2.26171875 488.203125 C5.23797504 486.89544036 8.25680382 485.79597503 11.3125 484.6875 C18.79053919 481.68230668 25.8888562 477.79261003 33 474 C33 393.15 33 312.3 33 229 C31.65652652 228.88618061 31.65652652 228.88618061 29.9609375 230.90625 Z " fill="#FCFDFC" transform="translate(720,68)"/>
</svg>
